<?xml version="1.0" encoding="UTF-8"?>
<svg width="32" height="32" viewBox="0 0 32 32" fill="none" xmlns="http://www.w3.org/2000/svg">
  <!-- Book cover -->
  <path d="M6 4C6 2.89543 6.89543 2 8 2H24C25.1046 2 26 2.89543 26 4V28C26 29.1046 25.1046 30 24 30H8C6.89543 30 6 29.1046 6 28V4Z" fill="#3e253d"/>
  
  <!-- Book pages -->
  <path d="M8 4C8 3.44772 8.44772 3 9 3H23C23.5523 3 24 3.44772 24 4V27C24 27.5523 23.5523 28 23 28H9C8.44772 28 8 27.5523 8 27V4Z" fill="#ffe2b9"/>
  
  <!-- Decorative elements -->
  <circle cx="16" cy="16" r="4" fill="#f6aa1d"/>
  <path d="M14 14L18 18M18 14L14 18" stroke="#3e253d" stroke-width="1.5" stroke-linecap="round"/>
</svg> 